<svg width="30" height="27" viewBox="0 0 30 27" fill="none" xmlns="http://www.w3.org/2000/svg">
<path d="M14.9754 21.7171C16.8463 21.7239 18.4392 21.0745 19.7542 19.769C21.0691 18.4635 21.7294 16.8756 21.7352 15.0055C21.7421 13.1343 21.0928 11.5412 19.7875 10.2261C18.4821 8.91102 16.8945 8.25057 15.0246 8.24475C13.1537 8.23792 11.5608 8.88728 10.2458 10.1928C8.93094 11.4983 8.27057 13.0862 8.26475 14.9563C8.25793 16.8275 8.9072 18.4206 10.2126 19.7357C11.5179 21.0508 13.1055 21.7112 14.9754 21.7171ZM2.98257 26.9126C2.15937 26.9096 1.45549 26.6137 0.87091 26.0247C0.286335 25.4358 -0.0039551 24.7302 4.0691e-05 23.9079L0.0655305 5.94478C0.0685321 5.12147 0.36446 4.41749 0.953314 3.83283C1.54217 3.24818 2.24769 2.95785 3.06989 2.96185L7.78456 2.97904L9.66283 0.965014C9.93841 0.641681 10.2701 0.399388 10.6578 0.238134C11.0456 0.0768801 11.4505 -0.00247822 11.8725 5.89522e-05L18.2336 0.0232564C18.6577 0.0248029 19.063 0.107615 19.4496 0.271693C19.8361 0.43577 20.1655 0.679975 20.4377 1.00431L22.3028 3.03198L27.0174 3.04918C27.8406 3.05218 28.5445 3.34815 29.1291 3.93708C29.7137 4.52601 30.004 5.23163 30 6.05394L29.9345 24.017C29.9315 24.8403 29.6355 25.5443 29.0467 26.129C28.4578 26.7136 27.7523 27.004 26.9301 27L2.98257 26.9126Z" fill="#757575"/>
<path d="M19.9421 14.9264C19.9421 17.6822 17.7084 19.9162 14.953 19.9162C12.1976 19.9162 9.96386 17.6822 9.96386 14.9264C9.96386 12.1706 12.1976 9.93663 14.953 9.93663C17.7084 9.93663 19.9421 12.1706 19.9421 14.9264Z" fill="#757575"/>
</svg>
